<svg xmlns="http://www.w3.org/2000/svg" viewBox="0 0 24 24" width="24" height="24">
  <defs>
    <mask id="h-cutout">
      <rect width="24" height="24" fill="white"/>
      <rect x="10.5" y="9.7" width=".75" height="4" rx=".25" fill="black"/>
      <rect x="12.75" y="9.7" width=".75" height="4" rx=".25" fill="black"/>
      <rect x="10.5" y="11.35" width="3" height=".75" rx=".25" fill="black"/>
    </mask>
  </defs>
  <g fill="currentColor">
    <path d="M11 11.2C8.8 8.6 5.8 6.5 2.4 5.1c.9 2.2 2.7 4.2 5.3 5.7l3.3 1.9z"/>
    <path d="M10.4 13.1C8 11.4 5.2 10 2.3 9.1c1.4 1.9 3.5 3.3 6.1 4.3l2 .8z" opacity=".72"/>
    <path d="M13 11.2c2.2-2.6 5.2-4.7 8.6-6.1-.9 2.2-2.7 4.2-5.3 5.7L13 12.7z"/>
    <path d="M13.6 13.1c2.4-1.7 5.2-3.1 8.1-4-1.4 1.9-3.5 3.3-6.1 4.3l-2 .8z" opacity=".72"/>
    <circle cx="12" cy="11.7" r="3.2" mask="url(#h-cutout)"/>
    <circle cx="10.7" cy="17.2" r=".55"/>
    <circle cx="12" cy="17.2" r=".65"/>
    <circle cx="13.3" cy="17.2" r=".55"/>
  </g>
</svg>
